<!DOCTYPE svg PUBLIC "-//W3C//DTD SVG 1.1//EN" "http://www.w3.org/Graphics/SVG/1.1/DTD/svg11.dtd">

<!-- Uploaded to: SVG Repo, www.svgrepo.com, Transformed by: SVG Repo Mixer Tools -->
<svg fill="#ffffff" version="1.1" id="Capa_1" xmlns="http://www.w3.org/2000/svg" xmlns:xlink="http://www.w3.org/1999/xlink" viewBox="0 0 344.125 344.126" xml:space="preserve"><g id="SVGRepo_bgCarrier" stroke-width="0"></g><g id="SVGRepo_tracerCarrier" stroke-linecap="round" stroke-linejoin="round"></g><g id="SVGRepo_iconCarrier"> <g> <g id="Artwork_2_"> <g id="Layer_5_2_"> <g> <path d="M282.12,0c-12.858,0-21.021,14.34-22.95,14.34c-1.691,0-9.52-14.34-22.958-14.34c-13.071,0-23.747,10.78-24.445,23.838 c-0.395,7.373,1.984,12.985,5.335,18.069c6.692,10.155,35.955,34.605,42.111,34.605c6.284,0,35.284-24.36,42.022-34.605 c3.359-5.108,5.729-10.696,5.333-18.069C305.87,10.78,295.194,0,282.12,0"></path> <path d="M139.659,38.284c-0.493,0-1.479,0-1.973,0c-134.86,0-96.89,193.798-90.104,231.245 c15.219,83.98,58.779,74.307,60.823,72.264c4.613-4.613-25.144-37.096-26.17-46.419c-0.156-1.422,0.768-2.278,1.446-2.563 c35.428-14.877,41.035-52.203,30.761-58.396c-15.379-9.271-27.479-28.271-31.082-40.52c-3.852-13.092-3.38-36.048-3.38-51.169 c0,0-0.042-1.081,1.875-1.081c15.996,0,49.805,0.015,76.625,0.026c3.589,0.001,19.031-19.696,22.312-19.694 c3.644,0.002-4.333,19.701-1.229,19.702c7.442,0.003,12.523,0.005,15.292,0.007c2,0,1.874,1.207,1.874,1.207 c0,12.494,1.105,37.911-2.746,51.002c-3.603,12.248-14.982,30.469-31.082,40.52c-9.146,5.711-4.51,43.234,30.794,58.404 c0.684,0.293,1.567,1.158,1.405,2.619c-1.042,9.42-29.316,43.201-26.162,46.355c4.301,4.301,45.604,11.719,60.823-72.264 C236.548,232.082,269.826,38.284,139.659,38.284z"></path> </g> </g> </g> </g> </g></svg>